<svg viewBox="0 0 100 140" xmlns="http://www.w3.org/2000/svg">
  <!-- Outer diamond -->
  <path d="M50 8 L88 70 L50 132 L12 70 Z" stroke="#FFFFFF" stroke-width="5" fill="none" stroke-linejoin="miter"/>
  
  <!-- Starburst/gear circle -->
  <g transform="translate(50, 70)">
    <path d="M0,-20 L3.5,-15 L7,-20 L7,-14 L12.5,-12.5 L10,-8 L15,-5 L10,-5 L12.5,0 L7,0 L7,5 L12.5,5 L10,8 L12.5,12.5 L7,14 L7,20 L3.5,15 L0,20 L-3.5,15 L-7,20 L-7,14 L-12.5,12.5 L-10,8 L-12.5,5 L-7,5 L-7,0 L-12.5,0 L-10,-5 L-15,-5 L-10,-8 L-12.5,-12.5 L-7,-14 L-7,-20 L-3.5,-15 Z" fill="#FFFFFF"/>
    
    <!-- Dark center circle with star -->
    <circle cx="0" cy="0" r="7" fill="#000000"/>
    <!-- 6-pointed star -->
    <polygon points="0,-5 1.7,-1.7 5,0 1.7,1.7 0,5 -1.7,1.7 -5,0 -1.7,-1.7" fill="#FFFFFF"/>
  </g>
</svg>
